<svg width="179" height="179" viewBox="0 0 179 179" fill="none" xmlns="http://www.w3.org/2000/svg">
<path d="M126.793 89.5V126.793M96.9571 126.793V111.875M22.375 111.875L43.4827 90.7673M59.6679 52.2071C53.7336 52.2071 48.0425 54.5645 43.8463 58.7606C39.6502 62.9567 37.2929 68.6479 37.2929 74.5821C37.2929 80.5164 39.6502 86.2075 43.8463 90.4037C48.0425 94.5998 53.7336 96.9571 59.6679 96.9571C65.6021 96.9571 71.2933 94.5998 75.4894 90.4037C79.6855 86.2075 82.0429 80.5164 82.0429 74.5821C82.0429 68.6479 79.6855 62.9567 75.4894 58.7606C71.2933 54.5645 65.6021 52.2071 59.6679 52.2071Z" stroke="#BFD4FF" stroke-width="10" stroke-linecap="round" stroke-linejoin="round"/>
<path d="M59.6679 22.375H149.168C151.146 22.375 153.042 23.1607 154.441 24.5591C155.839 25.9576 156.625 27.8544 156.625 29.8321V149.168C156.625 151.146 155.839 153.042 154.441 154.441C153.042 155.839 151.146 156.625 149.168 156.625H59.6679C58.6883 156.625 57.7182 156.433 56.813 156.058C55.9079 155.684 55.0854 155.135 54.3926 154.442C53.6997 153.75 53.1501 152.927 52.7751 152.022C52.4002 151.117 52.2072 150.147 52.2072 149.168V126.793" stroke="#BFD4FF" stroke-width="10" stroke-linecap="round" stroke-linejoin="round"/>
</svg>
